<svg width="512" height="524" viewBox="0 0 512 524" fill="none" xmlns="http://www.w3.org/2000/svg">
<circle cx="256" cy="268" r="256" fill="#242424"/>
<g filter="url(#filter0_d)">
<path d="M407.952 135.274C407.958 135.217 407.965 135.159 407.97 135.101C408.458 130.413 402.774 127.708 399.434 131.041L389.467 140.985C388.517 141.932 387.272 142.406 386.027 142.406C384.82 142.406 383.614 141.962 382.677 141.071C380.689 139.184 380.794 135.911 382.735 133.975L398.94 117.806C401.763 114.989 399.876 110.078 395.884 110.007C395.853 110.007 395.823 110.006 395.792 110.006C372.324 109.746 349.743 118.933 333.148 135.491L264.814 203.672C263.258 205.225 261.663 206.73 260.033 208.189C254.781 212.886 247.576 205.221 252.564 200.245L267.51 185.332C269.394 183.453 269.584 180.367 267.758 178.432C265.869 176.43 262.711 176.395 260.775 178.325L203.41 235.563C202.63 236.341 201.632 236.872 200.546 237.062C200.488 237.073 200.431 237.083 200.373 237.093C195.143 238.004 191.821 231.696 195.576 227.95L219.644 203.936C221.527 202.057 221.718 198.97 219.892 197.035C218.003 195.034 214.845 194.998 212.909 196.929L181.461 228.306C175.033 234.721 166.888 239.167 157.993 241.044C111.206 250.923 76.2929 293.428 78.0646 343.075C79.9164 394.979 121.574 437.216 173.559 439.868C220.467 442.261 261.286 412.083 274.817 369.894C277.16 362.586 281.108 355.89 286.546 350.465L314.077 322.995C315.96 321.116 316.151 318.03 314.325 316.095C312.436 314.094 309.278 314.058 307.342 315.988L292.281 331.016C287.67 335.616 279.801 331.992 280.337 325.508C280.343 325.433 280.349 325.358 280.355 325.284C280.494 323.643 281.215 322.108 282.383 320.943L377.151 226.387C379.034 224.508 379.225 221.422 377.399 219.487C375.51 217.486 372.352 217.45 370.416 219.38L303.939 285.707C299.425 290.211 292.185 284.666 295.344 279.131C300.63 269.868 307.171 261.27 314.858 253.601L383.191 185.421C384.47 184.144 385.706 182.832 386.896 181.487C389.904 178.088 385.007 173.474 381.794 176.68C380.844 177.628 379.599 178.102 378.354 178.102C377.147 178.102 375.941 177.657 375.003 176.767C373.016 174.88 373.121 171.607 375.062 169.671L406.51 138.293C407.324 137.481 407.83 136.416 407.952 135.274V135.274Z" fill="url(#paint0_linear)"/>
<path d="M407.996 294.066C407.947 289.634 404.366 286.053 399.934 286.004C385.314 285.842 371.244 291.578 360.906 301.917C351.656 311.167 338.615 315.349 325.642 313.67C322.3 313.237 318.877 313.065 315.392 313.175C281.169 314.249 253.792 342.73 254.002 376.97C254.215 411.684 282.315 439.784 317.029 439.999C351.268 440.21 379.751 412.833 380.826 378.61C380.936 375.125 380.763 371.7 380.331 368.358C378.651 355.386 382.834 342.344 392.084 333.095C402.422 322.756 408.159 308.687 407.996 294.066V294.066Z" fill="url(#paint1_linear)"/>
<path d="M321.823 313.305C319.706 313.16 317.562 313.107 315.392 313.175C313.188 313.244 311.014 313.428 308.873 313.719C313.237 314.235 317.601 314.084 321.823 313.305Z" fill="url(#paint2_linear)"/>
<path d="M399.934 286.004C395.595 285.956 391.308 286.439 387.149 287.396C389.294 288.846 390.713 291.288 390.744 294.066C390.907 308.687 385.17 322.756 374.831 333.094C365.581 342.344 361.399 355.385 363.078 368.357C363.511 371.7 363.683 375.125 363.574 378.61C362.595 409.787 338.868 435.279 308.765 439.41C311.469 439.78 314.227 439.981 317.029 439.998C351.268 440.21 379.751 412.833 380.826 378.61C380.936 375.124 380.763 371.7 380.331 368.357C378.651 355.385 382.834 342.343 392.084 333.094C402.422 322.756 408.159 308.686 407.997 294.066C407.947 289.634 404.366 286.053 399.934 286.004Z" fill="url(#paint3_linear)"/>
<path d="M317.429 424.666C343.99 424.666 365.523 403.133 365.523 376.572C365.523 350.01 343.99 328.478 317.429 328.478C290.867 328.478 269.335 350.01 269.335 376.572C269.335 403.133 290.867 424.666 317.429 424.666Z" fill="url(#paint4_linear)"/>
<path d="M317.429 328.477C314.482 328.477 311.602 328.756 308.803 329.264C331.245 333.331 348.271 352.956 348.271 376.572C348.271 384.262 346.456 391.524 343.245 397.97C341.618 390.644 334.875 385.244 326.955 385.723C319.258 386.188 312.925 392.371 312.292 400.055C311.959 404.092 313.155 407.841 315.364 410.788C318.872 415.467 316.411 422.22 310.704 423.495C310.074 423.635 309.44 423.764 308.802 423.879C311.602 424.387 314.482 424.666 317.428 424.666C343.99 424.666 365.522 403.134 365.522 376.572C365.522 350.01 343.99 328.477 317.429 328.477V328.477Z" fill="url(#paint5_linear)"/>
<path d="M293.11 385.692C298.729 385.692 303.285 381.137 303.285 375.518C303.285 369.899 298.729 365.344 293.11 365.344C287.491 365.344 282.936 369.899 282.936 375.518C282.936 381.137 287.491 385.692 293.11 385.692Z" fill="url(#paint6_linear)"/>
<path d="M324.098 365.344C329.717 365.344 334.272 360.789 334.272 355.169C334.272 349.55 329.717 344.995 324.098 344.995C318.479 344.995 313.923 349.55 313.923 355.169C313.923 360.789 318.479 365.344 324.098 365.344Z" fill="url(#paint7_linear)"/>
<path d="M162.377 433.238C205.243 433.238 239.992 398.489 239.992 355.623C239.992 312.757 205.243 278.008 162.377 278.008C119.511 278.008 84.7616 312.757 84.7616 355.623C84.7616 398.489 119.511 433.238 162.377 433.238Z" fill="url(#paint8_linear)"/>
<path d="M399.434 131.04L389.468 140.984C388.518 141.932 387.273 142.406 386.028 142.406C384.821 142.406 383.615 141.961 382.677 141.071C380.69 139.185 380.796 135.911 382.736 133.975L398.941 117.807C401.764 114.989 399.877 110.079 395.885 110.008C395.855 110.007 395.824 110.007 395.793 110.006C386.155 109.9 376.668 111.39 367.681 114.326C367.75 115.544 367.351 116.807 366.348 117.807L350.143 133.976C348.203 135.911 348.098 139.186 350.085 141.072C351.023 141.962 352.229 142.407 353.436 142.407C354.68 142.407 355.925 141.933 356.875 140.985L366.841 131.041C370.183 127.706 375.869 130.415 375.377 135.111C375.371 135.169 375.365 135.227 375.359 135.284C375.238 136.423 374.728 137.484 373.918 138.293L342.469 169.671C340.529 171.607 340.423 174.881 342.412 176.768C343.349 177.658 344.555 178.102 345.761 178.102C347.006 178.102 348.251 177.629 349.2 176.681H350.642C355.021 176.681 356.25 179.382 353.291 182.611C352.416 183.565 351.519 184.502 350.598 185.421L266.36 269.516C263.454 272.416 263.364 277.097 266.156 280.107C267.987 282.083 268.554 284.694 266.139 288.908C262.548 295.177 263.486 303.066 268.234 308.512L268.601 308.933C271.304 312.034 275.058 313.886 279.101 314.651C280.073 314.834 280.999 315.315 281.734 316.093C282.862 317.289 283.218 318.925 282.882 320.444L377.151 226.386C379.034 224.507 379.225 221.42 377.399 219.486C375.51 217.484 372.352 217.449 370.416 219.379L303.939 285.707C299.424 290.213 292.192 284.652 295.355 279.111C300.639 269.856 307.177 261.264 314.858 253.601L383.191 185.421C384.112 184.502 385.009 183.565 385.884 182.611C388.843 179.382 387.614 176.681 383.235 176.681H381.794C380.844 177.628 379.599 178.102 378.354 178.102C377.148 178.102 375.942 177.658 375.005 176.768C373.016 174.882 373.122 171.607 375.062 169.671L406.511 138.293C407.321 137.484 407.831 136.423 407.952 135.284C407.959 135.227 407.964 135.169 407.97 135.111C408.461 130.415 402.776 127.705 399.434 131.04V131.04Z" fill="url(#paint9_linear)"/>
<path d="M307.343 315.987L292.281 331.015C287.671 335.615 279.802 331.99 280.337 325.507C280.344 325.432 280.35 325.357 280.356 325.282C280.398 324.787 280.499 324.303 280.644 323.834L253.763 348.875C248.325 354.302 244.568 362.585 242.225 369.893C230.812 405.48 199.982 432.521 162.459 438.676C166.098 439.27 169.801 439.675 173.559 439.868C220.467 442.26 261.287 412.083 274.817 369.894C277.161 362.585 281.109 355.89 286.546 350.465L314.077 322.995C315.961 321.116 316.152 318.03 314.326 316.095C312.437 314.092 309.278 314.057 307.343 315.987V315.987Z" fill="url(#paint10_linear)"/>
<path d="M178.561 417.055C221.426 417.055 256.176 382.305 256.176 339.439C256.176 296.574 221.426 261.824 178.561 261.824C135.695 261.824 100.945 296.574 100.945 339.439C100.945 382.305 135.695 417.055 178.561 417.055Z" fill="url(#paint11_linear)"/>
<path d="M178.561 261.824C173.805 261.824 169.158 262.274 164.639 263.094C200.858 269.657 228.334 301.329 228.334 339.44C228.334 351.852 225.404 363.571 220.223 373.973C217.597 362.151 206.714 353.435 193.933 354.208C181.513 354.958 171.292 364.936 170.27 377.337C169.733 383.852 171.664 389.903 175.229 394.659C180.889 402.209 176.917 413.108 167.707 415.166C166.692 415.393 165.669 415.6 164.638 415.787C169.158 416.606 173.805 417.056 178.56 417.056C221.426 417.056 256.175 382.306 256.175 339.441C256.175 296.575 221.426 261.824 178.561 261.824V261.824Z" fill="url(#paint12_linear)"/>
<path d="M139.315 354.159C148.383 354.159 155.734 346.808 155.734 337.74C155.734 328.671 148.383 321.32 139.315 321.32C130.246 321.32 122.895 328.671 122.895 337.74C122.895 346.808 130.246 354.159 139.315 354.159Z" fill="url(#paint13_linear)"/>
<path d="M189.323 321.32C198.392 321.32 205.743 313.969 205.743 304.901C205.743 295.832 198.392 288.481 189.323 288.481C180.255 288.481 172.903 295.832 172.903 304.901C172.903 313.969 180.255 321.32 189.323 321.32Z" fill="url(#paint14_linear)"/>
<path d="M222.457 117.565C222.411 113.408 219.052 110.049 214.895 110.003C201.18 109.851 187.982 115.232 178.284 124.931C169.607 133.607 157.373 137.531 145.204 135.956C142.069 135.55 138.858 135.389 135.589 135.491C103.486 136.498 77.8031 163.216 78.0011 195.335C78.2017 227.898 104.56 254.258 137.124 254.459C169.242 254.658 195.961 228.977 196.969 196.873C197.072 193.603 196.911 190.391 196.504 187.255C194.929 175.086 198.852 162.853 207.529 154.177C217.228 144.478 222.609 131.28 222.457 117.565V117.565Z" fill="url(#paint15_linear)"/>
<path d="M141.622 135.614C139.635 135.477 137.624 135.427 135.589 135.491C133.522 135.556 131.482 135.729 129.473 136.001C133.568 136.486 137.661 136.344 141.622 135.614V135.614Z" fill="url(#paint16_linear)"/>
<path d="M214.895 110.003C210.824 109.958 206.803 110.411 202.902 111.31C204.914 112.669 206.245 114.96 206.274 117.565C206.426 131.28 201.045 144.478 191.346 154.177C182.669 162.853 178.746 175.086 180.321 187.255C180.726 190.391 180.888 193.603 180.786 196.873C179.868 226.119 157.61 250.032 129.372 253.907C131.908 254.253 134.495 254.442 137.124 254.459C169.242 254.657 195.961 228.976 196.969 196.872C197.072 193.603 196.911 190.39 196.504 187.254C194.929 175.086 198.853 162.852 207.529 154.176C217.228 144.477 222.609 131.28 222.457 117.565C222.411 113.408 219.052 110.049 214.895 110.003V110.003Z" fill="url(#paint17_linear)"/>
<path d="M137.5 240.076C162.416 240.076 182.614 219.877 182.614 194.961C182.614 170.045 162.416 149.846 137.5 149.846C112.583 149.846 92.3846 170.045 92.3846 194.961C92.3846 219.877 112.583 240.076 137.5 240.076Z" fill="url(#paint18_linear)"/>
<path d="M137.5 149.845C134.736 149.845 132.034 150.107 129.407 150.583C150.46 154.398 166.431 172.807 166.431 194.96C166.431 202.175 164.728 208.987 161.716 215.033C160.19 208.161 153.864 203.095 146.435 203.544C139.216 203.98 133.275 209.78 132.681 216.988C132.369 220.775 133.491 224.292 135.564 227.056C138.854 231.445 136.545 237.781 131.192 238.976C130.602 239.108 130.007 239.229 129.408 239.337C132.034 239.814 134.736 240.075 137.5 240.075C162.416 240.075 182.615 219.876 182.615 194.96C182.615 170.044 162.416 149.845 137.5 149.845V149.845Z" fill="url(#paint19_linear)"/>
<path d="M114.687 203.517C119.959 203.517 124.232 199.244 124.232 193.973C124.232 188.702 119.959 184.429 114.687 184.429C109.416 184.429 105.143 188.702 105.143 193.973C105.143 199.244 109.416 203.517 114.687 203.517Z" fill="url(#paint20_linear)"/>
<path d="M143.755 184.429C149.026 184.429 153.299 180.156 153.299 174.884C153.299 169.613 149.026 165.34 143.755 165.34C138.484 165.34 134.211 169.613 134.211 174.884C134.211 180.156 138.484 184.429 143.755 184.429Z" fill="url(#paint21_linear)"/>
</g>
<circle cx="256" cy="268" r="239" stroke="white" stroke-width="10"/>
<defs>
<filter id="filter0_d" x="-32" y="-28" width="576" height="576" filterUnits="userSpaceOnUse" color-interpolation-filters="sRGB">
<feFlood flood-opacity="0" result="BackgroundImageFix"/>
<feColorMatrix in="SourceAlpha" type="matrix" values="0 0 0 0 0 0 0 0 0 0 0 0 0 0 0 0 0 0 127 0"/>
<feOffset dy="4"/>
<feGaussianBlur stdDeviation="16"/>
<feColorMatrix type="matrix" values="0 0 0 0 0 0 0 0 0 0 0 0 0 0 0 0 0 0 1 0"/>
<feBlend mode="normal" in2="BackgroundImageFix" result="effect1_dropShadow"/>
<feBlend mode="normal" in="SourceGraphic" in2="effect1_dropShadow" result="shape"/>
</filter>
<linearGradient id="paint0_linear" x1="77.9999" y1="275" x2="408" y2="275" gradientUnits="userSpaceOnUse">
<stop stop-color="#FD8087"/>
<stop offset="0.5213" stop-color="#FB2B3A"/>
<stop offset="1" stop-color="#D90D80"/>
</linearGradient>
<linearGradient id="paint1_linear" x1="271.843" y1="363" x2="441.071" y2="363" gradientUnits="userSpaceOnUse">
<stop stop-color="#FEF056"/>
<stop offset="0.5213" stop-color="#F4D902"/>
<stop offset="1" stop-color="#FE9738"/>
</linearGradient>
<linearGradient id="paint2_linear" x1="199.645" y1="313.583" x2="389.01" y2="313.583" gradientUnits="userSpaceOnUse">
<stop stop-color="#FEF056"/>
<stop offset="0.5213" stop-color="#F4D902"/>
<stop offset="1" stop-color="#FE9738"/>
</linearGradient>
<linearGradient id="paint3_linear" x1="199.645" y1="363" x2="389.01" y2="363" gradientUnits="userSpaceOnUse">
<stop stop-color="#FEF056"/>
<stop offset="0.5213" stop-color="#F4D902"/>
<stop offset="1" stop-color="#FE9738"/>
</linearGradient>
<linearGradient id="paint4_linear" x1="269.335" y1="376.572" x2="365.523" y2="376.572" gradientUnits="userSpaceOnUse">
<stop stop-color="#FEF056"/>
<stop offset="0.5213" stop-color="#F4D902"/>
<stop offset="1" stop-color="#FE9738"/>
</linearGradient>
<linearGradient id="paint5_linear" x1="264.025" y1="376.572" x2="355.106" y2="376.572" gradientUnits="userSpaceOnUse">
<stop stop-color="#FEF056"/>
<stop offset="0.5213" stop-color="#F4D902"/>
<stop offset="1" stop-color="#FE9738"/>
</linearGradient>
<linearGradient id="paint6_linear" x1="264.025" y1="375.518" x2="355.106" y2="375.518" gradientUnits="userSpaceOnUse">
<stop stop-color="#FEF056"/>
<stop offset="0.5213" stop-color="#F4D902"/>
<stop offset="1" stop-color="#FE9738"/>
</linearGradient>
<linearGradient id="paint7_linear" x1="264.025" y1="355.169" x2="355.106" y2="355.169" gradientUnits="userSpaceOnUse">
<stop stop-color="#FEF056"/>
<stop offset="0.5213" stop-color="#F4D902"/>
<stop offset="1" stop-color="#FE9738"/>
</linearGradient>
<linearGradient id="paint8_linear" x1="41.1175" y1="355.623" x2="342.654" y2="355.623" gradientUnits="userSpaceOnUse">
<stop stop-color="#FD8087"/>
<stop offset="0.5213" stop-color="#FB2B3A"/>
<stop offset="1" stop-color="#D90D80"/>
</linearGradient>
<linearGradient id="paint9_linear" x1="41.1174" y1="215.222" x2="342.654" y2="215.222" gradientUnits="userSpaceOnUse">
<stop stop-color="#FD8087"/>
<stop offset="0.5213" stop-color="#FB2B3A"/>
<stop offset="1" stop-color="#D90D80"/>
</linearGradient>
<linearGradient id="paint10_linear" x1="41.1175" y1="377.283" x2="342.654" y2="377.283" gradientUnits="userSpaceOnUse">
<stop stop-color="#FD8087"/>
<stop offset="0.5213" stop-color="#FB2B3A"/>
<stop offset="1" stop-color="#D90D80"/>
</linearGradient>
<linearGradient id="paint11_linear" x1="100.945" y1="339.439" x2="256.176" y2="339.439" gradientUnits="userSpaceOnUse">
<stop stop-color="#FD8087"/>
<stop offset="0.5213" stop-color="#FB2B3A"/>
<stop offset="1" stop-color="#D90D80"/>
</linearGradient>
<linearGradient id="paint12_linear" x1="64.7856" y1="339.44" x2="251.139" y2="339.44" gradientUnits="userSpaceOnUse">
<stop stop-color="#FD8087"/>
<stop offset="0.5213" stop-color="#FB2B3A"/>
<stop offset="1" stop-color="#D90D80"/>
</linearGradient>
<linearGradient id="paint13_linear" x1="64.7856" y1="337.74" x2="251.139" y2="337.74" gradientUnits="userSpaceOnUse">
<stop stop-color="#FD8087"/>
<stop offset="0.5213" stop-color="#FB2B3A"/>
<stop offset="1" stop-color="#D90D80"/>
</linearGradient>
<linearGradient id="paint14_linear" x1="64.7856" y1="304.901" x2="251.139" y2="304.901" gradientUnits="userSpaceOnUse">
<stop stop-color="#FD8087"/>
<stop offset="0.5213" stop-color="#FB2B3A"/>
<stop offset="1" stop-color="#D90D80"/>
</linearGradient>
<linearGradient id="paint15_linear" x1="94.7373" y1="182.23" x2="253.483" y2="182.23" gradientUnits="userSpaceOnUse">
<stop stop-color="#814AA0"/>
<stop offset="1" stop-color="#192A7D"/>
</linearGradient>
<linearGradient id="paint16_linear" x1="27.0116" y1="135.874" x2="204.647" y2="135.874" gradientUnits="userSpaceOnUse">
<stop stop-color="#814AA0"/>
<stop offset="1" stop-color="#192A7D"/>
</linearGradient>
<linearGradient id="paint17_linear" x1="27.0115" y1="182.23" x2="204.647" y2="182.23" gradientUnits="userSpaceOnUse">
<stop stop-color="#814AA0"/>
<stop offset="1" stop-color="#192A7D"/>
</linearGradient>
<linearGradient id="paint18_linear" x1="92.3846" y1="194.961" x2="182.614" y2="194.961" gradientUnits="userSpaceOnUse">
<stop stop-color="#814AA0"/>
<stop offset="1" stop-color="#192A7D"/>
</linearGradient>
<linearGradient id="paint19_linear" x1="87.4042" y1="194.96" x2="172.843" y2="194.96" gradientUnits="userSpaceOnUse">
<stop stop-color="#814AA0"/>
<stop offset="1" stop-color="#192A7D"/>
</linearGradient>
<linearGradient id="paint20_linear" x1="87.4042" y1="193.973" x2="172.843" y2="193.973" gradientUnits="userSpaceOnUse">
<stop stop-color="#814AA0"/>
<stop offset="1" stop-color="#192A7D"/>
</linearGradient>
<linearGradient id="paint21_linear" x1="87.4042" y1="174.884" x2="172.843" y2="174.884" gradientUnits="userSpaceOnUse">
<stop stop-color="#814AA0"/>
<stop offset="1" stop-color="#192A7D"/>
</linearGradient>
</defs>
</svg>
